<?xml version="1.0" encoding="iso-8859-1"?>
<!-- Generator: Adobe Illustrator 18.0.0, SVG Export Plug-In . SVG Version: 6.00 Build 0)  -->
<!DOCTYPE svg PUBLIC "-//W3C//DTD SVG 1.1//EN" "http://www.w3.org/Graphics/SVG/1.1/DTD/svg11.dtd">
<svg version="1.1" id="Capa_1" xmlns="http://www.w3.org/2000/svg" xmlns:xlink="http://www.w3.org/1999/xlink" x="0px" y="0px"
	 viewBox="0 0 52.177 52.177" style="enable-background:new 0 0 52.177 52.177;" xml:space="preserve">
<path d="M49.588,49.177H42.44V7.667V1.5c0-0.829-0.671-1.5-1.5-1.5H11.236c-0.829,0-1.5,0.671-1.5,1.5v6.167v41.51H2.588
	c-0.829,0-1.5,0.671-1.5,1.5c0,0.829,0.671,1.5,1.5,1.5h47c0.829,0,1.5-0.671,1.5-1.5C51.088,49.848,50.417,49.177,49.588,49.177z
	 M33.94,49.177V36.833c0-0.829-0.671-1.5-1.5-1.5H19.736c-0.829,0-1.5,0.671-1.5,1.5v12.343h-5.5V9.167H39.44v40.01H33.94z
	 M34.913,15.609v4.528c0,0.735-0.565,1.332-1.262,1.332h-5.649c-0.697,0-1.262-0.596-1.262-1.332v-4.528
	c0-0.735,0.565-1.332,1.262-1.332h5.649C34.348,14.278,34.913,14.874,34.913,15.609z M25.436,15.609v4.528
	c0,0.735-0.565,1.332-1.262,1.332h-5.649c-0.697,0-1.262-0.596-1.262-1.332v-4.528c0-0.735,0.565-1.332,1.262-1.332h5.649
	C24.871,14.278,25.436,14.874,25.436,15.609z M25.436,24.177v4.528c0,0.735-0.565,1.332-1.262,1.332h-5.649
	c-0.697,0-1.262-0.596-1.262-1.332v-4.528c0-0.735,0.565-1.332,1.262-1.332h5.649C24.871,22.846,25.436,23.442,25.436,24.177z
	 M34.913,24.177v4.528c0,0.735-0.565,1.332-1.262,1.332h-5.649c-0.697,0-1.262-0.596-1.262-1.332v-4.528
	c0-0.735,0.565-1.332,1.262-1.332h5.649C34.348,22.846,34.913,23.442,34.913,24.177z"/>
<g>
</g>
<g>
</g>
<g>
</g>
<g>
</g>
<g>
</g>
<g>
</g>
<g>
</g>
<g>
</g>
<g>
</g>
<g>
</g>
<g>
</g>
<g>
</g>
<g>
</g>
<g>
</g>
<g>
</g>
</svg>
